<?xml version="1.0" encoding="UTF-8" standalone="no"?>
<svg
   viewBox="0 0 32 32"
   version="1.1"
   id="svg27"
   sodipodi:docname="atom-solid.svg"
   inkscape:version="1.2.1 (ef4d3fba62, 2022-07-19, custom)"
   xmlns:inkscape="http://www.inkscape.org/namespaces/inkscape"
   xmlns:sodipodi="http://sodipodi.sourceforge.net/DTD/sodipodi-0.dtd"
   xmlns:xlink="http://www.w3.org/1999/xlink"
   xmlns="http://www.w3.org/2000/svg"
   xmlns:svg="http://www.w3.org/2000/svg">
  <defs
     id="defs31">
    <linearGradient
       inkscape:collect="always"
       id="linearGradient2071">
      <stop
         style="stop-color:#bb7bb9;stop-opacity:1;"
         offset="0"
         id="stop2067" />
      <stop
         style="stop-color:#5f0d7b;stop-opacity:1;"
         offset="1"
         id="stop2069" />
    </linearGradient>
    <linearGradient
       inkscape:collect="always"
       id="linearGradient2063">
      <stop
         style="stop-color:#026413;stop-opacity:1;"
         offset="0.20252255"
         id="stop2059" />
      <stop
         style="stop-color:#17c153;stop-opacity:1;"
         offset="0.80550718"
         id="stop2061" />
    </linearGradient>
    <linearGradient
       inkscape:collect="always"
       id="linearGradient1994">
      <stop
         style="stop-color:#b33300;stop-opacity:1;"
         offset="0"
         id="stop1990" />
      <stop
         style="stop-color:#e69200;stop-opacity:1;"
         offset="1"
         id="stop1992" />
    </linearGradient>
    <linearGradient
       inkscape:collect="always"
       id="linearGradient1183">
      <stop
         style="stop-color:#173e78;stop-opacity:1;"
         offset="0.20252255"
         id="stop1179" />
      <stop
         style="stop-color:#249ede;stop-opacity:1;"
         offset="0.80550718"
         id="stop1181" />
    </linearGradient>
    <linearGradient
       inkscape:collect="always"
       xlink:href="#linearGradient1994"
       id="linearGradient1996"
       x1="10.137717"
       y1="15.555881"
       x2="20.28212"
       y2="6.7280846"
       gradientUnits="userSpaceOnUse" />
    <linearGradient
       inkscape:collect="always"
       xlink:href="#linearGradient2063"
       id="linearGradient2057"
       x1="26.07888"
       y1="12.009009"
       x2="17.741793"
       y2="28.970581"
       gradientUnits="userSpaceOnUse" />
    <linearGradient
       inkscape:collect="always"
       xlink:href="#linearGradient1183"
       id="linearGradient2065"
       x1="16.681875"
       y1="26.006495"
       x2="3.309418"
       y2="10.570014"
       gradientUnits="userSpaceOnUse" />
    <radialGradient
       inkscape:collect="always"
       xlink:href="#linearGradient2071"
       id="radialGradient2073"
       cx="16"
       cy="16"
       fx="16"
       fy="16"
       r="2"
       gradientUnits="userSpaceOnUse" />
  </defs>
  <sodipodi:namedview
     id="namedview29"
     pagecolor="#505050"
     bordercolor="#eeeeee"
     borderopacity="1"
     inkscape:showpageshadow="0"
     inkscape:pageopacity="0"
     inkscape:pagecheckerboard="0"
     inkscape:deskcolor="#505050"
     showgrid="false"
     inkscape:zoom="41.763494"
     inkscape:cx="3.1726273"
     inkscape:cy="18.939986"
     inkscape:window-width="3840"
     inkscape:window-height="2092"
     inkscape:window-x="0"
     inkscape:window-y="32"
     inkscape:window-maximized="1"
     inkscape:current-layer="svg27" />
  <path
     d="M 9.21875,7.613281 C 7.050781,7.574219 5.480469,8.222656 4.742188,9.5 3.9375,10.890625 4.273438,12.757813 5.65625,14.808594 5.78125,15 5.917969,15.203125 6.089844,15.425781 7.660156,17.480469 10.113281,19.527344 13,21.195313 13.183594,21.300781 13.375,21.394531 13.5625,21.5 12.417969,21.894531 11.308594,22.179688 10.289063,22.3125 8.339844,22.566406 6.914063,22.26172 6.476563,21.5 6.167969,20.96875 6.304688,20.125 6.816406,19.136719 6.292969,18.652344 5.796875,18.160156 5.351563,17.667969 4.230469,19.527344 4,21.21875 4.742188,22.5 c 0.71875,1.246094 2.21875,1.902344 4.296875,1.902344 0.472656,0 0.980468,-0.03516 1.507812,-0.105469 0.304688,-0.03906 0.609375,-0.08984 0.921875,-0.152344 l 0.21875,-0.04687 c 0.01563,0 0.02734,-0.0039 0.04297,-0.0078 0.53125,-0.113281 1.117187,-0.269531 1.789062,-0.480469 l 0.660157,-0.203125 c 0.980468,-0.335937 1.984375,-0.753906 2.988281,-1.242187 0.21875,-0.726563 0.414062,-1.574219 0.5625,-2.550782 -0.578125,0.324219 -1.160156,0.617188 -1.738281,0.890625 C 15.324219,20.191406 14.652344,19.84375 14,19.464844 11.335938,17.925781 9.089844,16.0625 7.679688,14.214844 6.484375,12.648438 6.035156,11.261719 6.476563,10.5 6.777344,9.976563 7.574219,9.679688 8.671875,9.625 8.828125,8.917969 9.007813,8.246094 9.21875,7.613281 Z"
     id="path25"
     style="opacity:1;fill:url(#linearGradient2065);fill-opacity:1;fill-rule:nonzero"
     sodipodi:nodetypes="cccccccccccscccccccccccccc" />
  <path
     d="m 20.742188,11.898438 c -0.789063,0.183593 -1.625,0.453125 -2.480469,0.792968 0.566406,0.335938 1.105469,0.695313 1.628906,1.054688 C 19.953125,14.472656 20,15.214844 20,16 20,21.898438 18.144531,26.398438 16.359375,26.941406 16.238281,26.980469 16.113281,27 16,27 15.367188,27 14.710938,26.464844 14.117188,25.519531 13.4375,25.734375 12.765625,25.917969 12.113281,26.054688 13.148438,27.910156 14.492188,29 16,29 16.199219,29 16.390625,28.98047 16.578125,28.94141 19.707031,28.347656 22,22.988281 22,16 c 0,-0.214844 -0.01563,-0.421875 -0.01953,-0.636719 0.914062,0.792969 1.71875,1.609375 2.34375,2.421875 1.191406,1.566407 1.640625,2.953125 1.203125,3.714844 -0.308594,0.527344 -1.09375,0.832031 -2.199219,0.886719 -0.15625,0.699219 -0.332031,1.375 -0.542969,2.003906 0.05469,0 0.121094,0.01172 0.175782,0.01172 2.078125,0 3.578125,-0.65625 4.296875,-1.902344 0.882812,-1.527344 0.40625,-3.632812 -1.347657,-5.925781 -1.242187,-1.625 -3.042968,-3.242188 -5.167968,-4.675781 z"
     style="fill:url(#linearGradient2057);fill-opacity:1;fill-rule:nonzero"
     id="path2026" />
  <path
     d="m 16,3 c -3.09375,0 -5.492187,4.578125 -5.921875,10.9375 0.554688,0.589844 1.207031,1.175781 1.929688,1.746094 0.0078,-0.664063 0.04687,-1.296875 0.101562,-1.917969 C 12.691406,13.363281 13.421875,12.871094 14,12.535156 16.660156,11 19.398438,9.988281 21.707031,9.6875 c 0.453125,-0.058594 0.878907,-0.085937 1.265625,-0.085937 1.296875,0 2.214844,0.3125 2.554688,0.898437 0.304687,0.53125 0.167969,1.375 -0.34375,2.363281 0.523437,0.484375 1.019531,0.976563 1.460937,1.472657 C 27.769531,12.472656 28,10.78125 27.257813,9.5 26.375,7.972656 24.316406,7.332031 21.453125,7.703125 18.886719,8.035156 15.886719,9.136719 13,10.804688 12.816406,10.910156 12.644531,11.027344 12.464844,11.140625 13.183594,7.441406 14.644531,5 16,5 16.632813,5 17.289063,5.539063 17.882813,6.476563 18.5625,6.265625 19.234375,6.082031 19.886719,5.945313 18.851563,4.089844 17.507813,3 16,3 Z"
     style="fill:url(#linearGradient1996);fill-opacity:1;fill-rule:nonzero"
     id="path1953" />
  <path
     d="m 16,14 c -1.105469,0 -2,0.894531 -2,2 0,1.105469 0.894531,2 2,2 1.105469,0 2,-0.894531 2,-2 0,-1.105469 -0.894531,-2 -2,-2 z"
     style="fill:url(#radialGradient2073);fill-opacity:1"
     id="path295" />
</svg>
